<svg xmlns="http://www.w3.org/2000/svg" viewBox="0 0 760 190" role="img" aria-labelledby="t d">
<title id="t">여울목</title><desc id="d">정신장애인 남성 공동생활가정 여울목</desc>
<g transform="translate(8 12)">
  <path d="M15 70C52 27 84 27 119 67c26 30 49 35 72 12 17-17 31-44 45-65 2 43-6 83-28 111-25 32-59 39-88 23-21-12-38-35-55-42-17-7-34 1-50 23 7-25 6-44 0-59Z" fill="#0873A5"/>
  <path d="M20 88c35-36 67-33 99 2 28 31 53 33 77 6 10-11 20-27 31-44-5 37-19 68-43 87-29 23-60 21-86 2-19-14-36-34-53-36-9-1-17 2-25 8Z" fill="#24A9D5" opacity=".96"/>
</g>
<text x="270" y="105" font-family="Pretendard, Noto Sans KR, Apple SD Gothic Neo, sans-serif" font-size="84" font-weight="700" letter-spacing="-5" fill="#126C96">여울목</text>
<text x="273" y="145" font-family="Pretendard, Noto Sans KR, Apple SD Gothic Neo, sans-serif" font-size="25" font-weight="500" letter-spacing="-1" fill="#4C6978">정신장애인 남성 공동생활가정</text>
</svg>